<svg width="1024" height="633" viewBox="0 0 1024 633" fill="none" xmlns="http://www.w3.org/2000/svg">
<rect width="1024" height="633" fill="#B9E8F2"/>
<ellipse cx="148.5" cy="293" rx="18.5" ry="20" fill="#396715"/>
<ellipse cx="164.5" cy="302" rx="15.5" ry="16" fill="#396715"/>
<ellipse cx="132" cy="302.5" rx="15" ry="15.5" fill="#396715"/>
<ellipse cx="145" cy="314" rx="15" ry="16" fill="#396715"/>
<ellipse cx="136.5" cy="325" rx="27.5" ry="22" fill="#396715"/>
<ellipse cx="159" cy="327.5" rx="27" ry="22.5" fill="#396715"/>
<ellipse cx="852.5" cy="287" rx="18.5" ry="20" fill="#396715"/>
<ellipse cx="868.5" cy="296" rx="15.5" ry="16" fill="#396715"/>
<ellipse cx="836" cy="296.5" rx="15" ry="15.5" fill="#396715"/>
<ellipse cx="849" cy="308" rx="15" ry="16" fill="#396715"/>
<ellipse cx="840.5" cy="319" rx="27.5" ry="22" fill="#396715"/>
<ellipse cx="863" cy="321.5" rx="27" ry="22.5" fill="#396715"/>
<ellipse cx="958.5" cy="287" rx="18.5" ry="20" fill="#396715"/>
<ellipse cx="974.5" cy="296" rx="15.5" ry="16" fill="#396715"/>
<ellipse cx="942" cy="296.5" rx="15" ry="15.5" fill="#396715"/>
<ellipse cx="955" cy="308" rx="15" ry="16" fill="#396715"/>
<ellipse cx="946.5" cy="319" rx="27.5" ry="22" fill="#396715"/>
<ellipse cx="969" cy="321.5" rx="27" ry="22.5" fill="#396715"/>
<ellipse cx="748.5" cy="290" rx="18.5" ry="20" fill="#396715"/>
<ellipse cx="764.5" cy="299" rx="15.5" ry="16" fill="#396715"/>
<ellipse cx="732" cy="299.5" rx="15" ry="15.5" fill="#396715"/>
<ellipse cx="745" cy="311" rx="15" ry="16" fill="#396715"/>
<ellipse cx="736.5" cy="322" rx="27.5" ry="22" fill="#396715"/>
<ellipse cx="759" cy="324.5" rx="27" ry="22.5" fill="#396715"/>
<ellipse cx="646.5" cy="290" rx="18.5" ry="20" fill="#396715"/>
<ellipse cx="662.5" cy="299" rx="15.5" ry="16" fill="#396715"/>
<ellipse cx="630" cy="299.5" rx="15" ry="15.5" fill="#396715"/>
<ellipse cx="643" cy="311" rx="15" ry="16" fill="#396715"/>
<ellipse cx="634.5" cy="322" rx="27.5" ry="22" fill="#396715"/>
<ellipse cx="657" cy="324.5" rx="27" ry="22.5" fill="#396715"/>
<ellipse cx="249.5" cy="293" rx="18.5" ry="20" fill="#396715"/>
<ellipse cx="265.5" cy="302" rx="15.5" ry="16" fill="#396715"/>
<ellipse cx="233" cy="302.5" rx="15" ry="15.5" fill="#396715"/>
<ellipse cx="246" cy="314" rx="15" ry="16" fill="#396715"/>
<ellipse cx="237.5" cy="325" rx="27.5" ry="22" fill="#396715"/>
<ellipse cx="260" cy="327.5" rx="27" ry="22.5" fill="#396715"/>
<ellipse cx="348.5" cy="293" rx="18.5" ry="20" fill="#396715"/>
<ellipse cx="364.5" cy="302" rx="15.5" ry="16" fill="#396715"/>
<ellipse cx="332" cy="302.5" rx="15" ry="15.5" fill="#396715"/>
<ellipse cx="345" cy="314" rx="15" ry="16" fill="#396715"/>
<ellipse cx="336.5" cy="325" rx="27.5" ry="22" fill="#396715"/>
<ellipse cx="359" cy="327.5" rx="27" ry="22.5" fill="#396715"/>
<ellipse cx="49.5" cy="293" rx="18.5" ry="20" fill="#396715"/>
<ellipse cx="65.5" cy="302" rx="15.5" ry="16" fill="#396715"/>
<ellipse cx="33" cy="302.5" rx="15" ry="15.5" fill="#396715"/>
<ellipse cx="46" cy="314" rx="15" ry="16" fill="#396715"/>
<ellipse cx="37.5" cy="325" rx="27.5" ry="22" fill="#396715"/>
<ellipse cx="60" cy="327.5" rx="27" ry="22.5" fill="#396715"/>
<rect y="338" width="1024" height="295" fill="#D5C396"/>
<rect x="401.952" y="261.037" width="189.911" height="76.9625" fill="#F1EEE7"/>
<path d="M497.315 214.369L602.49 261.652H392.14L497.315 214.369Z" fill="#DC7C23"/>
<line x1="589.103" y1="256.125" x2="589.103" y2="261.038" stroke="#9C5E01"/>
<rect x="453.301" y="299.519" width="88.0274" height="38.4813" fill="#4B6536"/>
<line x1="409.788" y1="254.487" x2="409.788" y2="261.038" stroke="#9C5E01"/>
<line x1="438.315" y1="241.387" x2="438.315" y2="261.038" stroke="#9C5E01"/>
<line x1="458.692" y1="232.381" x2="458.692" y2="261.038" stroke="#9C5E01"/>
<line x1="474.993" y1="225.012" x2="474.993" y2="261.038" stroke="#9C5E01"/>
<line x1="491.295" y1="217.644" x2="491.295" y2="261.038" stroke="#9C5E01"/>
<line x1="495.37" y1="216.006" x2="495.37" y2="261.038" stroke="#9C5E01"/>
<line x1="487.219" y1="219.281" x2="487.219" y2="261.038" stroke="#9C5E01"/>
<line x1="483.144" y1="220.919" x2="483.144" y2="261.038" stroke="#9C5E01"/>
<line x1="479.069" y1="223.375" x2="479.069" y2="261.038" stroke="#9C5E01"/>
<line x1="470.918" y1="226.65" x2="470.918" y2="261.038" stroke="#9C5E01"/>
<line x1="466.842" y1="228.287" x2="466.842" y2="261.038" stroke="#9C5E01"/>
<line x1="462.767" y1="230.744" x2="462.767" y2="261.038" stroke="#9C5E01"/>
<line x1="454.616" y1="234.019" x2="454.616" y2="261.038" stroke="#9C5E01"/>
<line x1="450.541" y1="236.475" x2="450.541" y2="261.038" stroke="#9C5E01"/>
<line x1="446.466" y1="238.112" x2="446.466" y2="261.038" stroke="#9C5E01"/>
<line x1="442.39" y1="239.75" x2="442.39" y2="261.038" stroke="#9C5E01"/>
<line x1="434.24" y1="243.025" x2="434.24" y2="261.038" stroke="#9C5E01"/>
<line x1="430.164" y1="245.481" x2="430.164" y2="261.038" stroke="#9C5E01"/>
<line x1="405.712" y1="256.125" x2="405.712" y2="261.038" stroke="#9C5E01"/>
<line x1="401.637" y1="257.763" x2="401.637" y2="261.038" stroke="#9C5E01"/>
<line x1="450.541" y1="256.125" x2="450.541" y2="261.038" stroke="#9C5E01"/>
<line x1="426.089" y1="247.119" x2="426.089" y2="261.038" stroke="#9C5E01"/>
<line x1="422.014" y1="248.756" x2="422.014" y2="261.038" stroke="#9C5E01"/>
<line x1="417.938" y1="250.394" x2="417.938" y2="261.038" stroke="#9C5E01"/>
<line x1="413.863" y1="252.85" x2="413.863" y2="261.038" stroke="#9C5E01"/>
<line y1="-0.5" x2="6.55" y2="-0.5" transform="matrix(0 1 1 0 582.23 254.487)" stroke="#9C5E01"/>
<line y1="-0.5" x2="19.65" y2="-0.5" transform="matrix(0 1 1 0 554.74 241.387)" stroke="#9C5E01"/>
<line y1="-0.5" x2="28.6562" y2="-0.5" transform="matrix(0 1 1 0 535.105 232.381)" stroke="#9C5E01"/>
<line y1="-0.5" x2="36.025" y2="-0.5" transform="matrix(0 1 1 0 519.396 225.012)" stroke="#9C5E01"/>
<line y1="-0.5" x2="43.3937" y2="-0.5" transform="matrix(0 1 1 0 503.687 217.644)" stroke="#9C5E01"/>
<line y1="-0.5" x2="45.0312" y2="-0.5" transform="matrix(0 1 1 0 499.76 216.006)" stroke="#9C5E01"/>
<line y1="-0.5" x2="41.7562" y2="-0.5" transform="matrix(0 1 1 0 507.615 219.281)" stroke="#9C5E01"/>
<line y1="-0.5" x2="40.1188" y2="-0.5" transform="matrix(0 1 1 0 511.542 220.919)" stroke="#9C5E01"/>
<line y1="-0.5" x2="37.6625" y2="-0.5" transform="matrix(0 1 1 0 515.469 223.375)" stroke="#9C5E01"/>
<line y1="-0.5" x2="34.3875" y2="-0.5" transform="matrix(0 1 1 0 523.323 226.65)" stroke="#9C5E01"/>
<line y1="-0.5" x2="32.75" y2="-0.5" transform="matrix(0 1 1 0 527.25 228.287)" stroke="#9C5E01"/>
<line y1="-0.5" x2="30.2938" y2="-0.5" transform="matrix(0 1 1 0 531.177 230.744)" stroke="#9C5E01"/>
<line y1="-0.5" x2="27.0187" y2="-0.5" transform="matrix(0 1 1 0 539.032 234.019)" stroke="#9C5E01"/>
<line y1="-0.5" x2="24.5625" y2="-0.5" transform="matrix(0 1 1 0 542.959 236.475)" stroke="#9C5E01"/>
<line y1="-0.5" x2="22.925" y2="-0.5" transform="matrix(0 1 1 0 546.886 238.112)" stroke="#9C5E01"/>
<line y1="-0.5" x2="21.2875" y2="-0.5" transform="matrix(0 1 1 0 550.813 239.75)" stroke="#9C5E01"/>
<line y1="-0.5" x2="18.0125" y2="-0.5" transform="matrix(0 1 1 0 558.667 243.025)" stroke="#9C5E01"/>
<line y1="-0.5" x2="15.5562" y2="-0.5" transform="matrix(0 1 1 0 562.595 245.481)" stroke="#9C5E01"/>
<path d="M585.75 254.487V261.038" stroke="#9C5E01"/>
<line x1="592.363" y1="257.763" x2="592.363" y2="261.038" stroke="#9C5E01"/>
<line y1="-0.5" x2="13.9187" y2="-0.5" transform="matrix(0 1 1 0 566.522 247.119)" stroke="#9C5E01"/>
<line y1="-0.5" x2="12.2812" y2="-0.5" transform="matrix(0 1 1 0 570.449 248.756)" stroke="#9C5E01"/>
<line y1="-0.5" x2="10.6438" y2="-0.5" transform="matrix(0 1 1 0 574.376 250.394)" stroke="#9C5E01"/>
<line y1="-0.5" x2="8.1875" y2="-0.5" transform="matrix(0 1 1 0 578.303 252.85)" stroke="#9C5E01"/>
<line x1="518.507" y1="225.512" x2="475.308" y2="225.512" stroke="#9C5E01"/>
<line x1="511.171" y1="221.419" x2="483.459" y2="221.419" stroke="#9C5E01"/>
<line x1="502.205" y1="217.325" x2="491.61" y2="217.325" stroke="#9C5E01"/>
<line x1="528.288" y1="229.606" x2="465.527" y2="229.606" stroke="#9C5E01"/>
<line x1="536.438" y1="233.7" x2="456.562" y2="233.7" stroke="#9C5E01"/>
<line x1="546.219" y1="237.794" x2="447.596" y2="237.794" stroke="#9C5E01"/>
<line x1="556" y1="241.887" x2="437.815" y2="241.887" stroke="#9C5E01"/>
<line x1="564.151" y1="245.981" x2="429.664" y2="245.981" stroke="#9C5E01"/>
<line x1="574.747" y1="250.075" x2="419.884" y2="250.075" stroke="#9C5E01"/>
<line x1="583.712" y1="254.169" x2="410.918" y2="254.169" stroke="#9C5E01"/>
<line x1="591.863" y1="258.262" x2="401.952" y2="258.263" stroke="#9C5E01"/>
<ellipse cx="499.5" cy="121" rx="37.5" ry="13" fill="white"/>
<ellipse cx="471.5" cy="117.5" rx="12.5" ry="11.5" fill="white"/>
<ellipse cx="489" cy="106.5" rx="15" ry="11.5" fill="white"/>
<ellipse cx="507.5" cy="107.5" rx="12.5" ry="10.5" fill="white"/>
<ellipse cx="525.5" cy="116.5" rx="13.5" ry="12.5" fill="white"/>
<ellipse cx="953.5" cy="190" rx="37.5" ry="13" fill="white"/>
<ellipse cx="925.5" cy="186.5" rx="12.5" ry="11.5" fill="white"/>
<ellipse cx="943" cy="175.5" rx="15" ry="11.5" fill="white"/>
<ellipse cx="961.5" cy="176.5" rx="12.5" ry="10.5" fill="white"/>
<ellipse cx="979.5" cy="185.5" rx="13.5" ry="12.5" fill="white"/>
<ellipse cx="288.5" cy="84" rx="37.5" ry="13" fill="white"/>
<ellipse cx="260.5" cy="80.5" rx="12.5" ry="11.5" fill="white"/>
<ellipse cx="278" cy="69.5" rx="15" ry="11.5" fill="white"/>
<ellipse cx="296.5" cy="70.5" rx="12.5" ry="10.5" fill="white"/>
<ellipse cx="314.5" cy="79.5" rx="13.5" ry="12.5" fill="white"/>
<ellipse cx="632.5" cy="201" rx="37.5" ry="13" fill="white"/>
<ellipse cx="604.5" cy="197.5" rx="12.5" ry="11.5" fill="white"/>
<ellipse cx="622" cy="186.5" rx="15" ry="11.5" fill="white"/>
<ellipse cx="640.5" cy="187.5" rx="12.5" ry="10.5" fill="white"/>
<ellipse cx="658.5" cy="196.5" rx="13.5" ry="12.5" fill="white"/>
<ellipse cx="641.5" cy="67" rx="37.5" ry="13" fill="white"/>
<ellipse cx="613.5" cy="63.5" rx="12.5" ry="11.5" fill="white"/>
<ellipse cx="631" cy="52.5" rx="15" ry="11.5" fill="white"/>
<ellipse cx="649.5" cy="53.5" rx="12.5" ry="10.5" fill="white"/>
<ellipse cx="667.5" cy="62.5" rx="13.5" ry="12.5" fill="white"/>
<ellipse cx="773.5" cy="144" rx="37.5" ry="13" fill="white"/>
<ellipse cx="745.5" cy="140.5" rx="12.5" ry="11.5" fill="white"/>
<ellipse cx="763" cy="129.5" rx="15" ry="11.5" fill="white"/>
<ellipse cx="781.5" cy="130.5" rx="12.5" ry="10.5" fill="white"/>
<ellipse cx="799.5" cy="139.5" rx="13.5" ry="12.5" fill="white"/>
<ellipse cx="171.5" cy="178" rx="37.5" ry="13" fill="white"/>
<ellipse cx="143.5" cy="174.5" rx="12.5" ry="11.5" fill="white"/>
<ellipse cx="161" cy="163.5" rx="15" ry="11.5" fill="white"/>
<ellipse cx="179.5" cy="164.5" rx="12.5" ry="10.5" fill="white"/>
<ellipse cx="197.5" cy="173.5" rx="13.5" ry="12.5" fill="white"/>
<ellipse cx="47.5" cy="125" rx="37.5" ry="13" fill="white"/>
<ellipse cx="19.5" cy="121.5" rx="12.5" ry="11.5" fill="white"/>
<ellipse cx="37" cy="110.5" rx="15" ry="11.5" fill="white"/>
<ellipse cx="55.5" cy="111.5" rx="12.5" ry="10.5" fill="white"/>
<ellipse cx="73.5" cy="120.5" rx="13.5" ry="12.5" fill="white"/>
<ellipse cx="134.5" cy="65" rx="37.5" ry="13" fill="white"/>
<ellipse cx="106.5" cy="61.5" rx="12.5" ry="11.5" fill="white"/>
<ellipse cx="124" cy="50.5" rx="15" ry="11.5" fill="white"/>
<ellipse cx="142.5" cy="51.5" rx="12.5" ry="10.5" fill="white"/>
<ellipse cx="160.5" cy="60.5" rx="13.5" ry="12.5" fill="white"/>
<ellipse cx="875.5" cy="95" rx="37.5" ry="13" fill="white"/>
<ellipse cx="847.5" cy="91.5" rx="12.5" ry="11.5" fill="white"/>
<ellipse cx="865" cy="80.5" rx="15" ry="11.5" fill="white"/>
<ellipse cx="883.5" cy="81.5" rx="12.5" ry="10.5" fill="white"/>
<ellipse cx="901.5" cy="90.5" rx="13.5" ry="12.5" fill="white"/>
<ellipse cx="442.5" cy="26" rx="37.5" ry="13" fill="white"/>
<ellipse cx="414.5" cy="22.5" rx="12.5" ry="11.5" fill="white"/>
<ellipse cx="432" cy="11.5" rx="15" ry="11.5" fill="white"/>
<ellipse cx="450.5" cy="12.5" rx="12.5" ry="10.5" fill="white"/>
<ellipse cx="468.5" cy="21.5" rx="13.5" ry="12.5" fill="white"/>
<ellipse cx="380.5" cy="189" rx="37.5" ry="13" fill="white"/>
<ellipse cx="352.5" cy="185.5" rx="12.5" ry="11.5" fill="white"/>
<ellipse cx="370" cy="174.5" rx="15" ry="11.5" fill="white"/>
<ellipse cx="388.5" cy="175.5" rx="12.5" ry="10.5" fill="white"/>
<ellipse cx="406.5" cy="184.5" rx="13.5" ry="12.5" fill="white"/>
</svg>
