<svg width="39" height="68" viewBox="0 0 39 68" fill="none" xmlns="http://www.w3.org/2000/svg">
<ellipse cx="19.5" cy="16.0341" rx="16.2835" ry="14.875" fill="#E6CFAE"/>
<path d="M3.37697 13.329C3.83633 10.3014 5.26634 7.46647 7.48617 5.1827C9.706 2.89892 12.616 1.26887 15.848 0.498672C19.0801 -0.271529 22.4892 -0.147287 25.6441 0.855688C28.7991 1.85866 31.5582 3.69532 33.5725 6.13341C35.5869 8.57149 36.7661 11.5015 36.9609 14.5529C37.1558 17.6043 36.3576 20.6401 34.6672 23.2763C32.9768 25.9126 30.4703 28.0309 27.4645 29.3633C24.4587 30.6958 21.0886 31.1826 17.7805 30.7622L20.1031 15.4545L3.37697 13.329Z" fill="#353535"/>
<path d="M39 46.3636C39 40.6253 36.9455 35.122 33.2886 31.0644C29.6316 27.0068 24.6717 24.7273 19.5 24.7273C14.3283 24.7273 9.36838 27.0068 5.71142 31.0644C2.05446 35.122 7.80908e-07 40.6253 0 46.3636L19.5 46.3636H39Z" fill="#1E818C"/>
<path d="M2.01031 46.3636C2.01032 42.7882 2.81425 39.2801 4.33597 36.2154C5.8577 33.1506 8.03985 30.6446 10.6486 28.9659L11.359 30.5825C8.99263 32.1052 7.01323 34.3783 5.6329 37.1583C4.25257 39.9383 3.52333 43.1204 3.52333 46.3636L2.01031 46.3636Z" fill="white"/>
<line x1="16.5" y1="37" x2="16.5" y2="41" stroke="white"/>
<line x1="22.5" y1="37" x2="22.5" y2="41" stroke="white"/>
<line x1="28.5" y1="37" x2="28.5" y2="44" stroke="white"/>
<line x1="25.5" y1="40" x2="25.5" y2="44" stroke="white"/>
<line x1="31.5" y1="40" x2="31.5" y2="44" stroke="white"/>
<line x1="19.5" y1="37" x2="19.5" y2="44" stroke="white"/>
<line x1="26" y1="37.5" x2="22" y2="37.5" stroke="white"/>
<line x1="32" y1="37.5" x2="28" y2="37.5" stroke="white"/>
<line x1="26" y1="40.5" x2="22" y2="40.5" stroke="white"/>
<line x1="32" y1="40.5" x2="28" y2="40.5" stroke="white"/>
<line x1="26" y1="43.5" x2="22" y2="43.5" stroke="white"/>
<line x1="32" y1="43.5" x2="28" y2="43.5" stroke="white"/>
<line x1="16" y1="40.5" x2="21" y2="40.5" stroke="white"/>
</svg>
