<svg width="44" height="42" viewBox="0 0 44 42" fill="none" xmlns="http://www.w3.org/2000/svg">
<ellipse cx="22" cy="21" rx="22" ry="21" fill="#1F1F1F"/>
<ellipse cx="22" cy="21" rx="20.1667" ry="19.1333" fill="#1F5A1E"/>
<path d="M34.8333 21C34.8333 24.3417 33.4813 27.5466 31.0745 29.9095C28.6678 32.2725 25.4036 33.6 22 33.6C18.5964 33.6 15.3322 32.2725 12.9255 29.9095C10.5187 27.5466 9.16666 24.3417 9.16666 21L12.6161 21C12.6161 23.4435 13.6048 25.7869 15.3646 27.5148C17.1244 29.2426 19.5112 30.2133 22 30.2133C24.4888 30.2133 26.8756 29.2426 28.6354 27.5148C30.3952 25.7869 31.3839 23.4435 31.3839 21H34.8333Z" fill="white"/>
<path d="M34.8333 21C34.8333 17.6583 33.4813 14.4534 31.0745 12.0905C28.6678 9.72749 25.4036 8.4 22 8.4C18.5964 8.4 15.3322 9.72749 12.9255 12.0905C10.5187 14.4534 9.16666 17.6583 9.16666 21L12.6161 21C12.6161 18.5565 13.6048 16.2131 15.3646 14.4852C17.1244 12.7574 19.5112 11.7867 22 11.7867C24.4888 11.7867 26.8756 12.7574 28.6354 14.4852C30.3952 16.2131 31.3839 18.5565 31.3839 21H34.8333Z" fill="white"/>
</svg>
